# xmcd
# 
# Track frame offsets:
#     150
#     16759
#     32588
#     48857
#     63334
#     83534
#     97968
#     113078
#     134526
#     148025
#     163609
#     177439
#     191570
#     209429
#     221715
#     235642
#     247937
#     264689
#     280139
#     290648
# 
# Disc length: 4113
# 
# Revision: 0
# Processed by: cddbd v1.5.2PL0 Copyright (c) Steve Scherf et al.
# Submitted via: fre:ac v1.0.17
# 
DISCID=1c100f14
DTITLE=Larry Jon Wilson - New Beginnings/Let Me Sing My Song To You
DYEAR=0
DGENRE=
TTITLE0=Ohoopee River Bottomland
TTITLE1=Through The Eyes Of Little Children
TTITLE2=New Beginnings
TTITLE3=The Truth Ain't In You
TTITLE4=Canoochee Revisited
TTITLE5=Broomstraw Philosophers And Scuppernong Wine
TTITLE6=Lay Me Down Again
TTITLE7=Melt Not My Igloo
TTITLE8=Things Ain't What They Used To Be
TTITLE9=Bertrand My Son
TTITLE10=Drowning In The Mainstream
TTITLE11=Let Me Sing My Song To You
TTITLE12=Sheldon Churchyard
TTITLE13=I Remember It Well
TTITLE14=The Ballad Of Handy Mackey
TTITLE15=think I feel a hitchhike coming on
TTITLE16=willoughby grove
TTITLE17=life of a good man
TTITLE18=kindred spirit
TTITLE19=farther along
EXTD=
EXTT0=
EXTT1=
EXTT2=
EXTT3=
EXTT4=
EXTT5=
EXTT6=
EXTT7=
EXTT8=
EXTT9=
EXTT10=
EXTT11=
EXTT12=
EXTT13=
EXTT14=
EXTT15=
EXTT16=
EXTT17=
EXTT18=
EXTT19=
PLAYORDER=
